<svg width="26" height="27" viewBox="0 0 26 27" fill="none" xmlns="http://www.w3.org/2000/svg">
<rect x="0.5" y="1.5" width="25" height="25" fill="#F9F6F0" fill-opacity="0.9" stroke="black"/>
<path d="M22.5027 8.08C22.0654 8.08 21.692 7.96533 21.3827 7.736C21.0787 7.50667 20.844 7.17867 20.6787 6.752C20.5187 6.32 20.4387 5.80267 20.4387 5.2C20.4387 4.59733 20.5187 4.08267 20.6787 3.656C20.844 3.224 21.0787 2.89333 21.3827 2.664C21.692 2.43467 22.0654 2.32 22.5027 2.32C22.9347 2.32 23.3027 2.43467 23.6067 2.664C23.916 2.89333 24.1534 3.224 24.3187 3.656C24.484 4.08267 24.5667 4.59733 24.5667 5.2C24.5667 5.80267 24.484 6.32 24.3187 6.752C24.1534 7.17867 23.916 7.50667 23.6067 7.736C23.3027 7.96533 22.9347 8.08 22.5027 8.08ZM22.5027 7.496C22.9614 7.496 23.316 7.29867 23.5667 6.904C23.8174 6.504 23.9427 5.936 23.9427 5.2C23.9427 4.464 23.8174 3.89867 23.5667 3.504C23.316 3.104 22.9614 2.904 22.5027 2.904C22.0387 2.904 21.6814 3.104 21.4307 3.504C21.18 3.89867 21.0547 4.464 21.0547 5.2C21.0547 5.936 21.18 6.504 21.4307 6.904C21.6814 7.29867 22.0387 7.496 22.5027 7.496Z" fill="black"/>
<path d="M12.5021 16.624L12.0861 14.368C12.6194 14.2293 13.0781 14.0747 13.4621 13.904C13.8567 13.7333 14.1821 13.5467 14.4381 13.344C14.6941 13.1307 14.8807 12.9013 14.9981 12.656C15.1261 12.4 15.1901 12.1227 15.1901 11.824C15.1901 11.504 15.1207 11.2267 14.9821 10.992C14.8541 10.7467 14.6621 10.5547 14.4061 10.416C14.1501 10.2773 13.8301 10.208 13.4461 10.208C13.0941 10.208 12.7634 10.272 12.4541 10.4C12.1447 10.528 11.8567 10.7147 11.5901 10.96C11.3341 11.2053 11.0941 11.4987 10.8701 11.84L9.76606 10.88C10.0754 10.4107 10.4221 10.0107 10.8061 9.68C11.2007 9.34933 11.6274 9.09867 12.0861 8.928C12.5554 8.74667 13.0514 8.656 13.5741 8.656C14.2674 8.656 14.8647 8.78933 15.3661 9.056C15.8674 9.312 16.2567 9.66933 16.5341 10.128C16.8114 10.5867 16.9501 11.1093 16.9501 11.696C16.9501 12.208 16.8221 12.6933 16.5661 13.152C16.3101 13.6107 15.9581 14.016 15.5101 14.368C15.0727 14.7093 14.5714 14.9813 14.0061 15.184L13.7341 16.624H12.5021ZM11.9421 18.976C11.9421 18.624 12.0434 18.336 12.2461 18.112C12.4487 17.888 12.7154 17.776 13.0461 17.776C13.3981 17.776 13.6701 17.8827 13.8621 18.096C14.0541 18.2987 14.1501 18.592 14.1501 18.976C14.1501 19.328 14.0487 19.616 13.8461 19.84C13.6434 20.064 13.3767 20.176 13.0461 20.176C12.6941 20.176 12.4221 20.0747 12.2301 19.872C12.0381 19.6587 11.9421 19.36 11.9421 18.976Z" fill="black"/>
</svg>
