<svg width="36" height="36" viewBox="0 0 36 36" fill="none" xmlns="http://www.w3.org/2000/svg">
<g filter="url(#filter0_d_13_2271)">
<path d="M4.04188 9.68909C4.67911 7.80794 5.72882 6.08116 7.11389 4.61776C7.34809 4.3703 7.71555 4.28209 8.04454 4.39439L11.3546 5.5241C12.252 5.83022 13.2394 5.38396 13.5601 4.52736C13.5916 4.44312 13.6159 4.3566 13.6327 4.26874L14.2633 0.964735C14.326 0.636232 14.5903 0.376376 14.9325 0.306842C15.9336 0.103448 16.9601 0 18 0C19.0393 0 20.0651 0.103331 21.0657 0.306469C21.4077 0.375932 21.672 0.635625 21.7349 0.964012L22.3673 4.2686C22.5382 5.16348 23.4367 5.75662 24.3743 5.59345C24.4666 5.57739 24.5572 5.55421 24.6453 5.52415L27.9554 4.39439C28.2844 4.28209 28.6518 4.3703 28.886 4.61776C30.2711 6.08116 31.3208 7.80794 31.9582 9.68909C32.0656 10.0064 31.9619 10.3544 31.6955 10.5702L29.0126 12.7445C28.2863 13.3333 28.1974 14.3727 28.8142 15.0661C28.8748 15.1343 28.9413 15.1976 29.0126 15.2555L31.6955 17.4298C31.9619 17.6456 32.0656 17.9935 31.9582 18.3109C31.3208 20.1922 30.2711 21.9189 28.886 23.3822C28.6518 23.6296 28.2844 23.7178 27.9554 23.6056L24.6453 22.4759C23.7481 22.1699 22.7606 22.6161 22.4399 23.4725C22.4084 23.5568 22.3841 23.6434 22.3672 23.7316L21.7349 27.036C21.672 27.3644 21.4077 27.624 21.0657 27.6935C20.0651 27.8966 19.0393 28 18 28C16.9601 28 15.9336 27.8966 14.9325 27.6931C14.5903 27.6235 14.326 27.3637 14.2633 27.0353L13.6327 23.7314C13.4618 22.8365 12.5632 22.2434 11.6257 22.4065C11.5335 22.4226 11.4428 22.4457 11.3547 22.4759L8.04454 23.6056C7.71555 23.7178 7.34809 23.6296 7.11389 23.3822C5.72882 21.9189 4.67911 20.1922 4.04188 18.3109C3.93439 17.9935 4.03803 17.6456 4.30442 17.4298L6.98731 15.2555C7.71373 14.6667 7.80257 13.6273 7.18577 12.9339C7.12512 12.8657 7.05875 12.8024 6.98733 12.7445L4.30442 10.5702C4.03803 10.3544 3.93439 10.0064 4.04188 9.68909ZM13.7388 13.9998C13.7388 16.2558 15.6465 18.0845 17.9997 18.0845C20.3529 18.0845 22.2606 16.2558 22.2606 13.9998C22.2606 11.7439 20.3529 9.91515 17.9997 9.91515C15.6465 9.91515 13.7388 11.7439 13.7388 13.9998Z" fill="white" fill-opacity="0.9"/>
</g>
<defs>
<filter id="filter0_d_13_2271" x="0" y="0" width="36" height="36" filterUnits="userSpaceOnUse" color-interpolation-filters="sRGB">
<feFlood flood-opacity="0" result="BackgroundImageFix"/>
<feColorMatrix in="SourceAlpha" type="matrix" values="0 0 0 0 0 0 0 0 0 0 0 0 0 0 0 0 0 0 127 0" result="hardAlpha"/>
<feOffset dy="4"/>
<feGaussianBlur stdDeviation="2"/>
<feComposite in2="hardAlpha" operator="out"/>
<feColorMatrix type="matrix" values="0 0 0 0 0 0 0 0 0 0 0 0 0 0 0 0 0 0 0.25 0"/>
<feBlend mode="normal" in2="BackgroundImageFix" result="effect1_dropShadow_13_2271"/>
<feBlend mode="normal" in="SourceGraphic" in2="effect1_dropShadow_13_2271" result="shape"/>
</filter>
</defs>
</svg>
